<svg height='100px' width='100px'  fill="#88f4e8" xmlns="http://www.w3.org/2000/svg" viewBox="0 0 64 64" x="0px" y="0px"><title>Artboard 78</title><g data-name="35"><polygon points="41.08 18.4 41.08 18.39 41.09 18.39 41.08 18.4"></polygon><path d="M41.81,17.83l0,0-.05,0Z"></path><path d="M41.1,18.38l0,0,0,0Z"></path><path d="M47,13.68v0l.07-.05Z"></path><path d="M54.5,6.92h0l0,0Z"></path><path d="M54.45,9.12Z"></path><polygon points="31.35 24.78 31.35 24.78 31.35 24.78 31.35 24.78"></polygon><path d="M34,31.5l.69-.53L35,30.7c.69-.54,1.38-1.1,2.06-1.66q2.08-1.7,4.23-3.35l-.06,0h0l.07,0,0,0h0l.56-.43h0l0,0,0,0,0,0,.12-.1C43.52,24,45,22.81,46.36,21.62s2.81-2.35,4.24-3.5l2.16-1.72.48-.38.34-.24.35-.29a1.84,1.84,0,0,0,.22-.17l.51-.44.67-.63.73-.46.9-.55.45-.3a2,2,0,0,0,.41-.34.59.59,0,0,0,.16-.38.47.47,0,0,0,0-.17c0-.13-.08-.25-.13-.38a1,1,0,0,0-.11-.24l-.09-.11v0a.1.1,0,0,0-.19,0s0,0,0,0h0l0,0,0,0a.45.45,0,0,0-.06-.32c0-.09-.1-.19-.14-.28L57,10.41c-.1-.18-.2-.35-.31-.52A10.26,10.26,0,0,0,56,9q-.75-1-1.53-2c-.08-.1-.16-.21-.25-.31a1.47,1.47,0,0,0-.1-.13l-.06-.07a1.39,1.39,0,0,0-.19-.15.54.54,0,0,0-.28-.08.57.57,0,0,0-.28.08.55.55,0,0,0-.2.2.57.57,0,0,0-.08.28v0l-.29.17c-.17.12-.34.23-.49.36l-.22.19-.07,0c-.42.29-.82.63-1.21,1s-.7.61-1,.92l-.94.88c-.66.61-1.31,1.23-2,1.83S45.46,13.36,44.76,14s-1.42,1.18-2.14,1.75h0l-.35.27,0,0c-.54.42-1.11.84-1.67,1.25-.76.55-1.5,1.12-2.23,1.72l-1,.83c-.35.28-.69.57-1,.85l-.75.55c-.38.26-.76.52-1.16.76l-1.11.7a10.79,10.79,0,0,0-1.08.84l-.12.1c-.1-.1-.2-.21-.31-.31-.68-.63-1.38-1.23-2.09-1.82l-.27-.23c-.61-.59-1.24-1.16-1.88-1.72s-1.41-1.21-2.12-1.8l-1.38-1.11-1-.86L21,13.87c-.66-.58-1.32-1.17-2-1.74s-1.46-1.19-2.21-1.77l.1.08-.73-.57c-.33-.26-.67-.52-1-.8l-1-.87-1-.87-.47-.43-.26-.22a2,2,0,0,0-.32-.25.41.41,0,0,0-.34,0s0-.06,0-.09a.42.42,0,0,0,0-.16A.11.11,0,0,0,11.67,6h0a.24.24,0,0,0-.12,0l-.13.06-.17.13a.4.4,0,0,0-.2.09l-.11.12-.11.13,0,.07-.16.14c-.61.65-1.19,1.32-1.78,2-.3.34-.61.68-.91,1l-.4.46-.25.29a1.43,1.43,0,0,0-.14.2v0s-.06,0-.07.05a.08.08,0,0,0,0,.05.09.09,0,0,0,0,.06.5.5,0,0,0,0,.13.52.52,0,0,0,0,.11.44.44,0,0,0,.13.32.39.39,0,0,0,.11.06s0,0,0,0h0c0,.08.09.15.14.23s.1.13.15.2l.14.18c.12.12.22.26.34.38l.39.4c.2.2.41.4.63.59l.77.71c1.34,1.21,2.71,2.4,4.08,3.58.7.6,1.4,1.2,2.09,1.81L18,21.47l2.16,1.8c.68.56,1.37,1.13,2.08,1.67l-.06,0,.1.07a.27.27,0,0,0,.08.07l.07.05h0l.09.07-.05,0,.11.09,0,0,1.56,1.2-.1-.07,1.67,1.28-.1-.08c.37.29.75.58,1.1.89.69.59,1.37,1.19,2,1.79l1,.88c.15.14.31.29.47.42l.36.26.12.07.06,0a.87.87,0,0,0,.26.08h.1l.18.18a1.84,1.84,0,0,0,.55.41.74.74,0,0,0,.21.07.58.58,0,0,0,.23,0,.92.92,0,0,0,.48-.16,3.11,3.11,0,0,0,.52-.44l.07-.08.11-.06a.8.8,0,0,0,.19-.13ZM22.37,25h0ZM15.55,10.59l-.07-.05,0,0Zm.13.11-.07-.06,0,0Zm27,5,0,0-.06,0Zm0,0h0l0,0Zm0,0h0Zm13.52-4.45.19.27a.52.52,0,0,0,.28.22h0l-.09.06c-.21.14-.41.29-.61.45-.76.58-1.5,1.18-2.25,1.78s-1.4,1.14-2.11,1.7-1.35,1.09-2,1.65L47.41,19.2l-2,1.64-1.16,1c-.35.27-.69.55-1,.83l-1.06.87-.06,0-2.25,1.67-1,.73c-.4.3-.81.6-1.21.92l0,0h0l-.07.06-.06,0,.06,0,0,0,0,0-.07.05,0,0-.08.06,0,0-.1.07h0l0,0h0l-.16.11-.12.1.1-.07c-.61.46-1.19.94-1.77,1.42s-1,.9-1.55,1.32a11.12,11.12,0,0,1-1,.69l-.1.06-.17-.12-.48-.32-1-.72-.31-.22a1.14,1.14,0,0,1-.11-.11l-1-.93-.45-.38L29,27.64a1.53,1.53,0,0,0-.21-.14l-.18-.09a.61.61,0,0,0-.27,0c-1.3-1.07-2.58-2.16-3.88-3.25s-2.79-2.34-4.2-3.5-2.92-2.36-4.4-3.5l.08.06-.42-.32L14,15.59c-.73-.61-1.47-1.19-2.22-1.77l-1-.74-.33-.23L10,12.51c-.31-.28-.62-.54-.94-.8a4.1,4.1,0,0,0-.35-.47.34.34,0,0,0-.23-.1c.28-.3.55-.64.81-1s.57-.75.84-1.14.5-.71.73-1.08l.12-.2c.11-.13.21-.26.31-.4s.12-.19.19-.29a.83.83,0,0,0,.07.13,1.51,1.51,0,0,0,.23.21l.2.19c.63.6,1.28,1.17,1.94,1.74s1.4,1.2,2.09,1.81l2,1.8,2.21,1.88,2,1.71,1,.86.61.49.38.29.42.28L27.52,21c.66.6,1.34,1.19,2,1.8.33.3.67.6,1,.91.15.15.3.3.46.44l.09.1a1.86,1.86,0,0,0,.1.25c.08.11.15.23.24.34l0,0,.06.07c.08.11.16.2.24.3a.93.93,0,0,0,.32.24.39.39,0,0,0,.23.07h.07a.74.74,0,0,0,.28-.08,2.43,2.43,0,0,0,.3-.26L33,25l.14-.18,0-.06h0l.07-.05a1.39,1.39,0,0,0,.19-.15l.22-.2.51-.43c.32-.26.63-.54.93-.82s.62-.6,1-.88.65-.54,1-.8c.67-.52,1.34-1,2-1.52s1.38-1,2-1.52h0l0,0h0l0,0,.18-.14h0l.07,0,0,0,.14-.11-.09.06.41-.31h0l0,0,.06,0h0l.47-.37c.71-.56,1.4-1.14,2.1-1.71s1.47-1.17,2.21-1.74h0l.42-.33c.46-.35.9-.71,1.35-1.08.67-.57,1.34-1.15,2-1.74l1.07-1,.29-.3.08-.06a3.88,3.88,0,0,1,.31-.26l.4-.36L53,8.42a1.3,1.3,0,0,0,.15-.18A2.43,2.43,0,0,0,53.4,8L53.49,8l.09,0c.13.19.25.38.39.57s.32.43.48.65l.18.23,0,0c.18.22.36.46.55.67l.3.31.14.13a.7.7,0,0,0,.17.13c.1.14.2.28.31.41S56.18,11.11,56.23,11.19Z"></path><path d="M34.77,30.9l-.1.08h0Z"></path><path d="M42,25.2l0,0,0,0Z"></path><polygon points="37.72 26.82 37.71 26.83 37.71 26.83 37.72 26.82"></polygon><path d="M22.5,25.12l0,0h0Z"></path><path d="M32.57,58a1.36,1.36,0,0,0,.28-.11l.14-.08.18-.13.42-.32c.35-.27.69-.56,1-.86s.62-.62.92-.94c.12-.11.24-.22.35-.34.34-.27.67-.55,1-.83l1-.84L39,52.68c.72-.58,1.42-1.16,2.12-1.77l2-1.79c.67-.6,1.34-1.19,2-1.76s1.33-1.12,2-1.69,1.4-1.25,2.09-1.87q2-1.75,4.07-3.38l.4-.3q.6-.45,1.17-.93l1-.89,1-.86a4.83,4.83,0,0,0,.51-.5,1.07,1.07,0,0,0,.15-.22,1.59,1.59,0,0,0,.07-.2.37.37,0,0,0,0-.18v-.11l0,0c.08-.11.15-.22.22-.33s0,0,0,0h0s.09-.1.13-.16l.09-.08h0c.09-.07,0-.23-.13-.16l0,0h0l0,0,0,0-.18.07-.1,0a.59.59,0,0,0-.12-.2l-.1-.1a.59.59,0,0,0-.11-.19.44.44,0,0,0-.2-.11l-.68-.65c-.33-.31-.66-.6-1-.89s-.67-.6-1-.89l-.52-.46-.27-.22a3.55,3.55,0,0,0-.31-.23h0L53,31.51l-.06-.07,0,0a1.22,1.22,0,0,0-.15-.17.72.72,0,0,0-.24-.14.65.65,0,0,0-.24,0,.47.47,0,0,0-.57.09.49.49,0,0,0-.15.34s0,0,0,0l-.13.1-.37.32-.63.58c-.32.29-.62.59-.93.89l-1.07,1-1,.89L47,35.8l-.25.23c-.14.14-.31.29-.29.51a.47.47,0,0,0,0,.17l0,0,0,0-.09.07h0l-.43.33c-.74.58-1.47,1.17-2.19,1.75s-1.34,1.1-2,1.66c-1.37,1.19-2.7,2.43-4,3.73l-.54.56-.31.27c-.68.59-1.38,1.17-2.08,1.75l-1,.85-.51.4,0,0c-.27-.21-.54-.43-.83-.64-.65-.48-1.32-.91-2-1.33C29.24,45.49,28.13,44.74,27,44c-.51-.45-1-.9-1.54-1.34-.68-.56-1.38-1.08-2.06-1.63l-.22-.17-.34-.28-.31-.3-.36-.33-.21-.2-.58-.5c-.16-.15-.33-.28-.5-.42l-.26-.21-.26-.2-.34-.26L19.84,38l-.14-.08-.65-.55c-.71-.57-1.43-1.13-2.13-1.71s-1.33-1.15-2-1.75l-.59-.56-.5-.45c-.16-.15-.34-.28-.51-.42l-.28-.2L13,32.18l-.15-.12c-.36-.26-.73-.49-1.1-.73a5,5,0,0,1-.54-.35l-.29-.21-.14-.09-.07-.05a1,1,0,0,0-.25-.08.42.42,0,0,0-.27,0,.43.43,0,0,0-.43-.1l-.16.07-.14.11-.15.19-.21.26,0,.06a.11.11,0,0,0-.12.08h0a.25.25,0,0,1,0,.07l-.1.09a1,1,0,0,0-.1.11,2.09,2.09,0,0,0-.23.29,5,5,0,0,0-.33.47c-.24.36-.46.72-.67,1.1a3.07,3.07,0,0,0-.17.31l0,.06c-.11.22-.23.43-.35.65h0c-.13.19-.26.38-.38.58l-.17.31a1.23,1.23,0,0,0-.12.26.41.41,0,0,0-.21.34.44.44,0,0,0,.21.37c.19.11.4.2.59.29l.24.12c.17.09.34.2.51.3l1.15.74.46.31,1.38,1.19c1.32,1.18,2.57,2.43,3.84,3.65.66.65,1.33,1.29,2,1.92s1.33,1.21,2,1.8c1.35,1.21,2.76,2.37,4.16,3.53l2,1.67c.74.61,1.46,1.22,2.18,1.84l2,1.79c.34.31.7.6,1.07.89l.26.19.22.17.18.18.48.42a6.61,6.61,0,0,0,.58.47.88.88,0,0,0,.51.2.5.5,0,0,0,.13,0A.37.37,0,0,0,32.57,58ZM7.4,35.3l.09.06v0l-.11-.05ZM37.52,46.37Zm8.88-9.59,0,0h0ZM53.79,34l.27.28c.31.31.62.62.92.94l.45.44.07.07.21.2-.3.32-.93.91c-.6.6-1.18,1.23-1.8,1.82s-1.32,1.23-2,1.86-1.29,1.27-2,1.86-1.4,1.21-2.1,1.81l-1.18,1-.42.35c-1.42,1.13-2.82,2.27-4.2,3.45-.7.58-1.38,1.18-2.06,1.78s-1.37,1.22-2,1.85l-.25.25-.28.23-1.66,1.43-.84.6-.86.62-.47.32-.07,0-.14-.21-.48-.64c-.08-.09-.14-.18-.22-.26a1.8,1.8,0,0,0-.2-.19l-.13-.09-.06,0L30.88,55a.42.42,0,0,0-.21-.06H30.6l-.37-.33c-.34-.3-.66-.6-1-.91l-2-1.8-2-1.84c-.65-.6-1.29-1.21-2-1.8q-2.05-1.86-4.16-3.69l-.29-.24-.58-.55c-.7-.64-1.4-1.26-2.12-1.88l0,0-.25-.24c-.11-.11-.23-.2-.35-.3a3.88,3.88,0,0,0-.31-.26l-.27-.19-.84-.71-2-1.69-1.14-.94-.46-.38-.65-.52-.6-.45-.54-.39L8.4,35.6l-.23-.14-.32-.17-.18-.07-.17-.1,0-.09c.16-.25.34-.48.51-.72l.43-.6.18-.2.16-.21a.35.35,0,0,0,.06-.14h0c.24-.34.5-.66.74-1l.37-.56.1-.16.12.14.41.42c.24.24.49.48.74.7l.41.35.45.36c.28.23.58.45.87.66l1.14.83c.92.87,1.83,1.75,2.76,2.6l2,1.83,2,1.87c.64.59,1.27,1.19,1.93,1.76s1.37,1.22,2.09,1.78,1.55,1.16,2.34,1.72,1.44,1,2.19,1.46l1.17.73.54.32.34.3.29.23.19.15,0,0a.44.44,0,0,0,.1.19.38.38,0,0,0,.39.1,1.63,1.63,0,0,0,.31-.11l.16-.08.18-.11.16.13.13.06.17.08.11,0a.44.44,0,0,0,.55-.42,1.75,1.75,0,0,0,0-.24.53.53,0,0,0-.11-.21l0,0,.57-.39c.34-.25.68-.51,1-.77l.88-.78.81-.75h0a.1.1,0,0,0,.12-.1h0v0l.07-.06.95-.86,2-1.82c.68-.61,1.36-1.22,2.05-1.81s1.43-1.22,2.15-1.83c1.38-1.16,2.75-2.34,4.09-3.54.7-.64,1.39-1.27,2.08-1.92.33-.31.65-.63,1-1l.21-.22.26-.31a1,1,0,0,0,.08-.11Z"></path><path d="M25,44.71l0,0,.06.05Z"></path></g></svg>